<mxfile host="65bd71144e">
    <diagram id="--Cg5LZtLZEJZ7YuPXrv" name="Page-1">
        <mxGraphModel dx="1123" dy="876" grid="1" gridSize="10" guides="1" tooltips="1" connect="1" arrows="1" fold="1" page="1" pageScale="1" pageWidth="850" pageHeight="1100" math="0" shadow="0">
            <root>
                <mxCell id="0"/>
                <mxCell id="1" parent="0"/>
                <mxCell id="22" value="" style="rounded=1;whiteSpace=wrap;html=1;absoluteArcSize=1;arcSize=14;strokeWidth=2;strokeColor=#000000;" vertex="1" parent="1">
                    <mxGeometry x="60" y="80" width="1020" height="350" as="geometry"/>
                </mxCell>
                <mxCell id="3" value="Input (Front-End)" style="swimlane;" vertex="1" parent="1">
                    <mxGeometry x="80" y="200" width="200" height="200" as="geometry"/>
                </mxCell>
                <mxCell id="4" value="Unngah citra rontgen paru-Paru" style="rounded=0;whiteSpace=wrap;html=1;" vertex="1" parent="3">
                    <mxGeometry x="30" y="70" width="140" height="60" as="geometry"/>
                </mxCell>
                <mxCell id="5" value="Proses (Back-End)" style="swimlane;" vertex="1" parent="1">
                    <mxGeometry x="310" y="200" width="520" height="200" as="geometry"/>
                </mxCell>
                <mxCell id="10" value="Menerima dan membaca citra rontgen paru-paru" style="rounded=0;whiteSpace=wrap;html=1;" vertex="1" parent="5">
                    <mxGeometry x="20" y="70" width="140" height="60" as="geometry"/>
                </mxCell>
                <mxCell id="11" value="Pre-processing citra rontgen paru-paru" style="rounded=0;whiteSpace=wrap;html=1;" vertex="1" parent="5">
                    <mxGeometry x="190" y="70" width="140" height="60" as="geometry"/>
                </mxCell>
                <mxCell id="12" value="" style="edgeStyle=none;html=1;" edge="1" parent="5" source="10" target="11">
                    <mxGeometry relative="1" as="geometry"/>
                </mxCell>
                <mxCell id="13" value="Prediksi gambar menggunakan model yang telah dibuat" style="rounded=0;whiteSpace=wrap;html=1;" vertex="1" parent="5">
                    <mxGeometry x="360" y="70" width="140" height="60" as="geometry"/>
                </mxCell>
                <mxCell id="14" value="" style="edgeStyle=none;html=1;" edge="1" parent="5" source="11" target="13">
                    <mxGeometry relative="1" as="geometry"/>
                </mxCell>
                <mxCell id="15" value="Output" style="swimlane;" vertex="1" parent="1">
                    <mxGeometry x="860" y="200" width="200" height="200" as="geometry"/>
                </mxCell>
                <mxCell id="16" value="Klasifikasi citra rontgen paru-paru" style="rounded=0;whiteSpace=wrap;html=1;" vertex="1" parent="15">
                    <mxGeometry x="30" y="70" width="140" height="60" as="geometry"/>
                </mxCell>
                <mxCell id="17" style="edgeStyle=none;html=1;exitX=1;exitY=0.5;exitDx=0;exitDy=0;entryX=0;entryY=0.5;entryDx=0;entryDy=0;" edge="1" parent="1" source="4" target="10">
                    <mxGeometry relative="1" as="geometry"/>
                </mxCell>
                <mxCell id="18" style="edgeStyle=none;html=1;exitX=1;exitY=0.5;exitDx=0;exitDy=0;entryX=0;entryY=0.5;entryDx=0;entryDy=0;" edge="1" parent="1" source="13" target="16">
                    <mxGeometry relative="1" as="geometry"/>
                </mxCell>
                <mxCell id="24" style="edgeStyle=none;html=1;exitX=0.5;exitY=1;exitDx=0;exitDy=0;" edge="1" parent="1" source="20" target="13">
                    <mxGeometry relative="1" as="geometry"/>
                </mxCell>
                <mxCell id="20" value="Model ResNet-152 &lt;br&gt;versi 1 dan versi 2" style="rounded=0;whiteSpace=wrap;html=1;" vertex="1" parent="1">
                    <mxGeometry x="670" y="110" width="140" height="60" as="geometry"/>
                </mxCell>
            </root>
        </mxGraphModel>
    </diagram>
</mxfile>